<svg width="512" height="512" xmlns="http://www.w3.org/2000/svg">

 <g>
  <title>background</title>
  <rect fill="none" id="canvas_background" height="402" width="582" y="-1" x="-1"/>
 </g>
 <g>
  <title>Layer 1</title>
  <path id="svg_1" fill="#7f0000" d="m453.33203,0l-394.66406,0c-32.36328,0 -58.66797,26.30469 -58.66797,58.66797l0,394.66406c0,32.36328 26.30469,58.66797 58.66797,58.66797l394.66406,0c32.36328,0 58.66797,-26.30469 58.66797,-58.66797l0,-394.66406c0,-32.36328 -26.30469,-58.66797 -58.66797,-58.66797zm0,0"/>
  <g id="svg_2" fill="#fafafa">
   <path id="svg_3" d="m341.33203,362.66797l-170.66406,0c-11.79688,0 -21.33594,-9.55859 -21.33594,-21.33594c0,-11.77344 9.53906,-21.33203 21.33594,-21.33203l170.66406,0c11.79688,0 21.33594,9.55859 21.33594,21.33203c0,11.77735 -9.53906,21.33594 -21.33594,21.33594zm0,0"/>
   <path id="svg_4" d="m341.33203,277.33203l-170.66406,0c-11.79688,0 -21.33594,-9.55469 -21.33594,-21.33203s9.53906,-21.33203 21.33594,-21.33203l170.66406,0c11.79688,0 21.33594,9.55469 21.33594,21.33203s-9.53906,21.33203 -21.33594,21.33203zm0,0"/>
   <path id="svg_5" d="m341.33203,192l-170.66406,0c-11.79688,0 -21.33594,-9.55859 -21.33594,-21.33203c0,-11.77734 9.53906,-21.33594 21.33594,-21.33594l170.66406,0c11.79688,0 21.33594,9.5586 21.33594,21.33594c0,11.77344 -9.53906,21.33203 -21.33594,21.33203zm0,0"/>
  </g>
 </g>
</svg>